<svg xmlns="http://www.w3.org/2000/svg" viewBox="0 0 64 64" role="img" aria-labelledby="title desc">
  <title id="title">Heart favicon</title>
  <desc id="desc">A cute pink heart with a soft highlight.</desc>
  <rect width="64" height="64" rx="18" fill="#fff7fb" />
  <path d="M32 52c-1.1 0-2.2-.4-3.1-1.2C17.2 40.6 10 33.8 10 24.8 10 18.4 14.9 14 21.1 14c4.2 0 8.1 2.1 10.9 5.5C34.8 16.1 38.7 14 42.9 14 49.1 14 54 18.4 54 24.8c0 9-7.2 15.8-18.9 26-1 .8-2 1.2-3.1 1.2Z" fill="#ff5d8f" />
  <path d="M24 18.5c-2.7 0-5 1.6-6.1 4.1" fill="none" stroke="#ffd3e1" stroke-linecap="round" stroke-width="3" />
  <circle cx="23" cy="22" r="2" fill="#ffd3e1" />
</svg>
